<?plantuml 1.2026.2?><svg xmlns="http://www.w3.org/2000/svg" xmlns:xlink="http://www.w3.org/1999/xlink" contentStyleType="text/css" data-diagram-type="STATE" height="1302px" preserveAspectRatio="none" style="width:886px;height:1302px;background:#FFFFFF;" version="1.1" viewBox="0 0 886 1302" width="886px" zoomAndPan="magnify"><title>Zustandsdiagramm - Workflow Run Lifecycle</title><defs/><g><g class="title" data-source-line="1"><text fill="#000000" font-family="sans-serif" font-size="14" font-weight="bold" lengthAdjust="spacing" textLength="352.7891" x="256.7232" y="22.9951">Zustandsdiagramm - Workflow Run Lifecycle</text></g><g class="entity" data-qualified-name="Pending" id="ent0002"><rect fill="#F1F1F1" height="64.2344" rx="12.5" ry="12.5" style="stroke:#181818;stroke-width:0.5;" width="133.9766" x="373.13" y="140.2969"/><line style="stroke:#181818;stroke-width:0.5;" x1="373.13" x2="507.1066" y1="166.5938" y2="166.5938"/><text fill="#000000" font-family="sans-serif" font-size="14" lengthAdjust="spacing" textLength="56.4648" x="411.8859" y="158.292">Pending</text><text fill="#000000" font-family="sans-serif" font-size="12" lengthAdjust="spacing" textLength="103.3184" x="378.13" y="182.7324">Manifest geladen</text><text fill="#000000" font-family="sans-serif" font-size="12" lengthAdjust="spacing" textLength="113.9766" x="378.13" y="196.7012">Context initialisiert</text></g><path d="M19.5,281.5369 L860.7354,281.5369 A12.5,12.5 0 0 1 873.2354,294.0369 L873.2354,307.8338 L7,307.8338 L7,294.0369 A12.5,12.5 0 0 1 19.5,281.5369" fill="#F1F1F1"/><rect fill="none" height="775.8" rx="12.5" ry="12.5" style="stroke:#181818;stroke-width:0.5;" width="866.2354" x="7" y="281.5369"/><line style="stroke:#181818;stroke-width:0.5;" x1="7" x2="873.2354" y1="307.8338" y2="307.8338"/><text fill="#000000" font-family="sans-serif" font-size="14" lengthAdjust="spacing" textLength="57.9961" x="411.1197" y="299.532">Running</text><path d="M31.5,319.8338 L851.7354,319.8338 A12.5,12.5 0 0 1 864.2354,332.3338 L864.2354,346.1306 L19,346.1306 L19,332.3338 A12.5,12.5 0 0 1 31.5,319.8338" fill="#F1F1F1"/><rect fill="none" height="596.2969" rx="12.5" ry="12.5" style="stroke:#181818;stroke-width:0.5;" width="845.2354" x="19" y="319.8338"/><line style="stroke:#181818;stroke-width:0.5;" x1="19" x2="864.2354" y1="346.1306" y2="346.1306"/><text fill="#000000" font-family="sans-serif" font-size="14" lengthAdjust="spacing" textLength="106.9893" x="388.1231" y="337.8289">Step ausf&#252;hren</text><g class="entity" data-qualified-name="Running.StepExec.PreSpecCheck" id="ent0005"><rect fill="#F1F1F1" height="50" rx="12.5" ry="12.5" style="stroke:#181818;stroke-width:0.5;" width="132.3281" x="500.25" y="414.1306"/><line style="stroke:#181818;stroke-width:0.5;" x1="500.25" x2="632.5781" y1="440.4275" y2="440.4275"/><text fill="#000000" font-family="sans-serif" font-size="14" lengthAdjust="spacing" textLength="112.3281" x="510.25" y="432.1257">Pre-Spec pr&#252;fen</text></g><g class="entity" data-qualified-name="Running.StepExec.AgentExec" id="ent0006"><rect fill="#F1F1F1" height="50" rx="12.5" ry="12.5" style="stroke:#181818;stroke-width:0.5;" width="136.5527" x="344.14" y="517.1306"/><line style="stroke:#181818;stroke-width:0.5;" x1="344.14" x2="480.6927" y1="543.4275" y2="543.4275"/><text fill="#000000" font-family="sans-serif" font-size="14" lengthAdjust="spacing" textLength="116.5527" x="354.14" y="535.1257">Agent ausf&#252;hren</text></g><g class="entity" data-qualified-name="Running.StepExec.PostSpecCheck" id="ent0007"><rect fill="#F1F1F1" height="50" rx="12.5" ry="12.5" style="stroke:#181818;stroke-width:0.5;" width="139.3076" x="193.76" y="635.1306"/><line style="stroke:#181818;stroke-width:0.5;" x1="193.76" x2="333.0676" y1="661.4275" y2="661.4275"/><text fill="#000000" font-family="sans-serif" font-size="14" lengthAdjust="spacing" textLength="119.3076" x="203.76" y="653.1257">Post-Spec pr&#252;fen</text></g><g class="entity" data-qualified-name="Running.StepExec.InvariantCheck" id="ent0008"><rect fill="#F1F1F1" height="50" rx="12.5" ry="12.5" style="stroke:#181818;stroke-width:0.5;" width="132.834" x="31" y="738.1306"/><line style="stroke:#181818;stroke-width:0.5;" x1="31" x2="163.834" y1="764.4275" y2="764.4275"/><text fill="#000000" font-family="sans-serif" font-size="14" lengthAdjust="spacing" textLength="112.834" x="41" y="756.1257">Invariant pr&#252;fen</text></g><g class="entity" data-qualified-name="Running.StepExec.StepPassed" id="ent0009"><rect fill="#F1F1F1" height="50" rx="12.5" ry="12.5" style="stroke:#181818;stroke-width:0.5;" width="111.7451" x="41.54" y="856.1306"/><line style="stroke:#181818;stroke-width:0.5;" x1="41.54" x2="153.2851" y1="882.4275" y2="882.4275"/><text fill="#000000" font-family="sans-serif" font-size="14" lengthAdjust="spacing" textLength="91.7451" x="51.54" y="874.1257">Step PASSED</text></g><g class="entity" data-qualified-name="Running.StepExec.StepFailed" id="ent0010"><rect fill="#F1F1F1" height="50" rx="12.5" ry="12.5" style="stroke:#181818;stroke-width:0.5;" width="105.5107" x="400.66" y="738.1306"/><line style="stroke:#181818;stroke-width:0.5;" x1="400.66" x2="506.1707" y1="764.4275" y2="764.4275"/><text fill="#000000" font-family="sans-serif" font-size="14" lengthAdjust="spacing" textLength="85.5107" x="410.66" y="756.1257">Step FAILED</text></g><g class="start_entity" data-qualified-name="Running.StepExec..start.StepExec" data-source-line="14" id="ent0005"><ellipse cx="566.42" cy="367.1306" fill="#222222" rx="10" ry="10" style="stroke:#222222;stroke-width:1;"/></g><g class="end_entity" data-qualified-name="Running.StepExec..end.StepExec" data-source-line="31" id="ent0014"><ellipse cx="358.42" cy="881.1306" fill="none" rx="11" ry="11" style="stroke:#222222;stroke-width:1;"/><ellipse cx="358.42" cy="881.1306" fill="#222222" rx="6" ry="6" style="stroke:#222222;stroke-width:1;"/></g><!--link *start*StepExec to PreSpecCheck--><g class="link" data-entity-1="ent0005" data-entity-2="ent0005" data-link-type="dependency" data-source-line="14" id="lnk6"><path d="M566.42,377.5706 C566.42,386.8306 566.42,395.3206 566.42,407.8106" fill="none" id="*start*StepExec-to-PreSpecCheck" style="stroke:#181818;stroke-width:1;"/><polygon fill="#181818" points="566.42,413.8106,570.42,404.8106,566.42,408.8106,562.42,404.8106,566.42,413.8106" style="stroke:#181818;stroke-width:1;"/></g><!--link PreSpecCheck to AgentExec--><g class="link" data-entity-1="ent0005" data-entity-2="ent0006" data-link-type="dependency" data-source-line="21" id="lnk7"><path d="M500.1,450.2806 C463.98,457.2906 424.44,467.9306 413.42,482.1306 C405.94,491.7606 404.507,499.2308 405.857,510.8408" fill="none" id="PreSpecCheck-to-AgentExec" style="stroke:#181818;stroke-width:1;"/><polygon fill="#181818" points="406.55,516.8006,409.4837,507.3989,405.9725,511.8341,401.5373,508.3229,406.55,516.8006" style="stroke:#181818;stroke-width:1;"/><text fill="#000000" font-family="sans-serif" font-size="13" lengthAdjust="spacing" textLength="137.2427" x="414.42" y="495.1975">Pre-Specs bestanden</text></g><!--link PreSpecCheck to StepFailed--><g class="link" data-entity-1="ent0005" data-entity-2="ent0010" data-link-type="dependency" data-source-line="22" id="lnk8"><path d="M566.42,464.3206 C566.07,518.3606 563.13,647.1106 543.42,685.1306 C532.25,706.6706 517.1171,721.2019 498.8071,734.4019" fill="none" id="PreSpecCheck-to-StepFailed" style="stroke:#181818;stroke-width:1;"/><polygon fill="#181818" points="493.94,737.9106,503.5798,735.8922,497.9959,734.9867,498.9015,729.4027,493.94,737.9106" style="stroke:#181818;stroke-width:1;"/><text fill="#000000" font-family="sans-serif" font-size="13" lengthAdjust="spacing" textLength="167.3306" x="562.81" y="605.6975">Pre-Specs fehlgeschlagen</text></g><!--link AgentExec to PostSpecCheck--><g class="link" data-entity-1="ent0006" data-entity-2="ent0007" data-link-type="dependency" data-source-line="24" id="lnk9"><path d="M381.18,567.4506 C355.84,587.1806 325.0039,611.1841 299.6039,630.9641" fill="none" id="AgentExec-to-PostSpecCheck" style="stroke:#181818;stroke-width:1;"/><polygon fill="#181818" points="294.87,634.6506,304.4285,632.2768,298.8149,631.5786,299.5132,625.965,294.87,634.6506" style="stroke:#181818;stroke-width:1;"/><text fill="#000000" font-family="sans-serif" font-size="13" lengthAdjust="spacing" textLength="77.4922" x="356.64" y="605.6975">Agent fertig</text></g><!--link AgentExec to StepFailed--><g class="link" data-entity-1="ent0006" data-entity-2="ent0010" data-link-type="dependency" data-source-line="25" id="lnk10"><path d="M430.13,567.5006 C433.41,573.0506 436.42,579.1106 438.42,585.1306 C455.7,637.3906 456.4038,696.8348 455.1038,731.6648" fill="none" id="AgentExec-to-StepFailed" style="stroke:#181818;stroke-width:1;"/><polygon fill="#181818" points="454.88,737.6606,459.2129,728.8161,455.0665,732.6641,451.2185,728.5177,454.88,737.6606" style="stroke:#181818;stroke-width:1;"/><text fill="#000000" font-family="sans-serif" font-size="13" lengthAdjust="spacing" textLength="83.8398" x="455.66" y="664.6975">Agent-Fehler</text></g><!--link PostSpecCheck to InvariantCheck--><g class="link" data-entity-1="ent0007" data-entity-2="ent0008" data-link-type="dependency" data-source-line="27" id="lnk11"><path d="M193.27,670.0406 C153.24,676.7306 108.64,687.4506 96.42,703.1306 C88.92,712.7406 87.6858,720.2422 89.4958,731.8522" fill="none" id="PostSpecCheck-to-InvariantCheck" style="stroke:#181818;stroke-width:1;"/><polygon fill="#181818" points="90.42,737.7806,92.9859,728.2719,89.6498,732.8403,85.0814,729.5042,90.42,737.7806" style="stroke:#181818;stroke-width:1;"/><text fill="#000000" font-family="sans-serif" font-size="13" lengthAdjust="spacing" textLength="143.7236" x="97.42" y="716.1975">Post-Specs bestanden</text></g><!--link PostSpecCheck to StepFailed--><g class="link" data-entity-1="ent0007" data-entity-2="ent0010" data-link-type="dependency" data-source-line="28" id="lnk12"><path d="M257.35,685.6206 C255.95,697.2706 256.71,710.6906 264.42,720.1306 C281.37,740.9006 344.5962,751.4326 394.3562,756.9226" fill="none" id="PostSpecCheck-to-StepFailed" style="stroke:#181818;stroke-width:1;"/><polygon fill="#181818" points="400.32,757.5806,391.8129,752.6178,395.3502,757.0323,390.9356,760.5695,400.32,757.5806" style="stroke:#181818;stroke-width:1;"/><text fill="#000000" font-family="sans-serif" font-size="13" lengthAdjust="spacing" textLength="173.8115" x="265.42" y="716.1975">Post-Specs fehlgeschlagen</text></g><!--link InvariantCheck to StepPassed--><g class="link" data-entity-1="ent0008" data-entity-2="ent0009" data-link-type="dependency" data-source-line="30" id="lnk13"><path d="M97.42,788.4506 C97.42,808.2506 97.42,830.0606 97.42,849.8406" fill="none" id="InvariantCheck-to-StepPassed" style="stroke:#181818;stroke-width:1;"/><polygon fill="#181818" points="97.42,855.8406,101.42,846.8406,97.42,850.8406,93.42,846.8406,97.42,855.8406" style="stroke:#181818;stroke-width:1;"/><text fill="#000000" font-family="sans-serif" font-size="13" lengthAdjust="spacing" textLength="137.7124" x="98.42" y="826.6975">Invariants bestanden</text></g><!--link InvariantCheck to *end*StepExec--><g class="link" data-entity-1="ent0008" data-entity-2="ent0014" data-link-type="dependency" data-source-line="31" id="lnk15"><path d="M164.12,774.1506 C189.68,780.3406 218.04,790.2706 240.42,806.1306 C254.71,816.2606 249.82,827.0906 263.42,838.1306 C289.88,859.6106 323.2656,870.6767 341.9556,875.8267" fill="none" id="InvariantCheck-to-*end*StepExec" style="stroke:#181818;stroke-width:1;"/><polygon fill="#181818" points="347.74,877.4206,340.126,871.1735,342.9196,876.0924,338.0008,878.8861,347.74,877.4206" style="stroke:#181818;stroke-width:1;"/><text fill="#000000" font-family="sans-serif" font-size="13" lengthAdjust="spacing" textLength="161.0273" x="264.42" y="819.1975">Invariant fehlgeschlagen</text><text fill="#000000" font-family="sans-serif" font-size="13" lengthAdjust="spacing" textLength="48.877" x="320.4952" y="834.3303">&#8594; HALT</text></g><!--link StepFailed to PreSpecCheck--><g class="link" data-entity-1="ent0010" data-entity-2="ent0005" data-link-type="dependency" data-source-line="36" id="lnk16"><path d="M506.5,752.1106 C573.23,736.3506 685.01,698.7206 734.42,617.1306 C772.22,554.7106 688.441,498.8648 626.081,467.2348" fill="none" id="StepFailed-to-PreSpecCheck" style="stroke:#181818;stroke-width:1;"/><polygon fill="#181818" points="620.73,464.5206,626.9471,472.1592,625.1892,466.7824,630.566,465.0245,620.73,464.5206" style="stroke:#181818;stroke-width:1;"/><text fill="#000000" font-family="sans-serif" font-size="13" lengthAdjust="spacing" textLength="35.166" x="781.7547" y="598.1975">Retry</text><text fill="#000000" font-family="sans-serif" font-size="13" lengthAdjust="spacing" textLength="109.7954" x="744.44" y="613.3303">(attempt &lt; max)</text></g><!--link StepFailed to *end*StepExec--><g class="link" data-entity-1="ent0010" data-entity-2="ent0014" data-link-type="dependency" data-source-line="37" id="lnk17"><path d="M450.44,788.5706 C447.5,804.1206 441.72,823.9206 430.42,838.1306 C414.02,858.7406 390.208,869.2739 374.538,874.8039" fill="none" id="StepFailed-to-*end*StepExec" style="stroke:#181818;stroke-width:1;"/><polygon fill="#181818" points="368.88,876.8006,378.6982,877.5775,373.595,875.1367,376.0359,870.0335,368.88,876.8006" style="stroke:#181818;stroke-width:1;"/><text fill="#000000" font-family="sans-serif" font-size="13" lengthAdjust="spacing" textLength="124.1919" x="447.11" y="826.6975">Keine Retries &#252;brig</text></g><g class="entity" data-qualified-name="Running.Routing" id="ent0011"><rect fill="#F1F1F1" height="78.2031" rx="12.5" ry="12.5" style="stroke:#181818;stroke-width:0.5;" width="187.9297" x="347.65" y="969.1338"/><line style="stroke:#181818;stroke-width:0.5;" x1="347.65" x2="535.5797" y1="995.4306" y2="995.4306"/><text fill="#000000" font-family="sans-serif" font-size="14" lengthAdjust="spacing" textLength="54.3047" x="414.4625" y="987.1289">Routing</text><text fill="#000000" font-family="sans-serif" font-size="12" lengthAdjust="spacing" textLength="112.2363" x="352.65" y="1011.5693">Router.next_step()</text><text fill="#000000" font-family="sans-serif" font-size="12" lengthAdjust="spacing" textLength="149.6777" x="352.65" y="1025.538">on_pass &#8594; n&#228;chster Step</text><text fill="#000000" font-family="sans-serif" font-size="12" lengthAdjust="spacing" textLength="167.9297" x="352.65" y="1039.5068">on_fail &#8594; Fehler-Step / Ende</text></g><!--link StepExec to Routing--><g class="link" data-entity-1="ent0004" data-entity-2="ent0011" data-link-type="dependency" data-source-line="40" id="lnk18"><path d="M367.92,916.3938 C367.08,922.3438 366.32,928.2638 365.62,934.1338 C364.73,941.6338 362.21,944.3838 365.62,951.1338 C368.87,957.5738 369.1363,959.086 374.1563,964.416" fill="none" id="StepExec-to-Routing" style="stroke:#181818;stroke-width:1;"/><polygon fill="#181818" points="378.27,968.7838,375.0113,959.4896,374.8419,965.144,369.1876,964.9746,378.27,968.7838" style="stroke:#181818;stroke-width:1;"/><text fill="#000000" font-family="sans-serif" font-size="13" lengthAdjust="spacing" textLength="129.708" x="366.62" y="947.2006">Step abgeschlossen</text></g><!--link Routing to StepExec--><g class="link" data-entity-1="ent0011" data-entity-2="ent0004" data-link-type="dependency" data-source-line="48" id="lnk19"><path d="M486.39,968.6438 C490.52,963.1938 494.09,957.3138 496.62,951.1338 C499.47,944.1338 497.27,941.6538 496.62,934.1338 C496.11,928.3238 496.167,928.423 495.567,922.523" fill="none" id="Routing-to-StepExec" style="stroke:#181818;stroke-width:1;"/><polygon fill="#181818" points="494.96,916.5538,491.8911,925.9123,495.4659,921.5281,499.85,925.1029,494.96,916.5538" style="stroke:#181818;stroke-width:1;"/><text fill="#000000" font-family="sans-serif" font-size="13" lengthAdjust="spacing" textLength="157.9487" x="499.04" y="947.2006">N&#228;chster Step gefunden</text></g><g class="entity" data-qualified-name="Completed" id="ent0012"><rect fill="#F1F1F1" height="64.2344" rx="12.5" ry="12.5" style="stroke:#181818;stroke-width:0.5;" width="177.6348" x="138.3" y="1149.3369"/><line style="stroke:#181818;stroke-width:0.5;" x1="138.3" x2="315.9348" y1="1175.6338" y2="1175.6338"/><text fill="#000000" font-family="sans-serif" font-size="14" lengthAdjust="spacing" textLength="76.3574" x="188.9387" y="1167.332">Completed</text><text fill="#000000" font-family="sans-serif" font-size="12" lengthAdjust="spacing" textLength="144.2344" x="143.3" y="1191.7724">Items in DB gespeichert</text><text fill="#000000" font-family="sans-serif" font-size="12" lengthAdjust="spacing" textLength="157.6348" x="143.3" y="1205.7412">Run-Status = COMPLETED</text></g><g class="entity" data-qualified-name="Failed" id="ent0013"><rect fill="#F1F1F1" height="64.2344" rx="12.5" ry="12.5" style="stroke:#181818;stroke-width:0.5;" width="185.0176" x="396.61" y="1149.3369"/><line style="stroke:#181818;stroke-width:0.5;" x1="396.61" x2="581.6276" y1="1175.6338" y2="1175.6338"/><text fill="#000000" font-family="sans-serif" font-size="14" lengthAdjust="spacing" textLength="41.9111" x="468.1632" y="1167.332">Failed</text><text fill="#000000" font-family="sans-serif" font-size="12" lengthAdjust="spacing" textLength="165.0176" x="401.61" y="1191.7724">Fehlermeldung gespeichert</text><text fill="#000000" font-family="sans-serif" font-size="12" lengthAdjust="spacing" textLength="125.959" x="401.61" y="1205.7412">Run-Status = FAILED</text></g><g class="start_entity" data-qualified-name=".start." data-source-line="3" id="ent0002"><ellipse cx="440.12" cy="53.2969" fill="#222222" rx="10" ry="10" style="stroke:#222222;stroke-width:1;"/></g><g class="end_entity" data-qualified-name=".end." data-source-line="66" id="ent0024"><ellipse cx="334.12" cy="1285.5669" fill="none" rx="11" ry="11" style="stroke:#222222;stroke-width:1;"/><ellipse cx="334.12" cy="1285.5669" fill="#222222" rx="6" ry="6" style="stroke:#222222;stroke-width:1;"/></g><!--link *start* to Pending--><g class="link" data-entity-1="ent0002" data-entity-2="ent0002" data-link-type="dependency" data-source-line="3" id="lnk3"><path d="M440.12,63.4869 C440.12,79.7169 440.12,108.1669 440.12,133.8069" fill="none" id="*start*-to-Pending" style="stroke:#181818;stroke-width:1;"/><polygon fill="#181818" points="440.12,139.8069,444.12,130.8069,440.12,134.8069,436.12,130.8069,440.12,139.8069" style="stroke:#181818;stroke-width:1;"/><text fill="#000000" font-family="sans-serif" font-size="13" lengthAdjust="spacing" textLength="110.1191" x="441.12" y="106.3638">Workflow erstellt</text></g><!--link Pending to Running--><g class="link" data-entity-1="ent0002" data-entity-2="ent0003" data-link-type="dependency" data-source-line="10" id="lnk4"><path d="M440.12,204.7569 C440.12,223.7769 440.12,244.3169 440.12,275.1669" fill="none" id="Pending-to-Running" style="stroke:#181818;stroke-width:1;"/><polygon fill="#181818" points="440.12,281.1669,444.12,272.1669,440.12,276.1669,436.12,272.1669,440.12,281.1669" style="stroke:#181818;stroke-width:1;"/><text fill="#000000" font-family="sans-serif" font-size="13" lengthAdjust="spacing" textLength="107.5293" x="441.12" y="247.6038">run() aufgerufen</text></g><!--link Running to Completed--><g class="link" data-entity-1="ent0003" data-entity-2="ent0012" data-link-type="dependency" data-source-line="51" id="lnk20"><path d="M158.44,1057.7369 C154.69,1067.5569 151.24,1077.4269 148.12,1087.3369 C143.84,1100.8969 141.85,1106.5669 148.12,1119.3369 C153.77,1130.8569 158.1697,1136.9531 168.0897,1145.3031" fill="none" id="Running-to-Completed" style="stroke:#181818;stroke-width:1;"/><polygon fill="#181818" points="172.68,1149.1669,168.3704,1140.3109,168.8547,1145.947,163.2187,1146.4314,172.68,1149.1669" style="stroke:#181818;stroke-width:1;"/><text fill="#000000" font-family="sans-serif" font-size="13" lengthAdjust="spacing" textLength="146.6055" x="160.1459" y="1100.4038">Alle Steps durchlaufen</text><text fill="#000000" font-family="sans-serif" font-size="13" lengthAdjust="spacing" textLength="168.6572" x="149.12" y="1115.5366">(Router gibt None zur&#252;ck)</text></g><!--link Running to Failed--><g class="link" data-entity-1="ent0003" data-entity-2="ent0013" data-link-type="dependency" data-source-line="52" id="lnk21"><path d="M316.29,1057.6669 C321.57,1079.2569 330.25,1099.9969 343.12,1119.3369 C355.68,1138.2069 369.7946,1148.8714 390.6346,1157.9014" fill="none" id="Running-to-Failed" style="stroke:#181818;stroke-width:1;"/><polygon fill="#181818" points="396.14,1160.2869,389.4722,1153.0384,391.5522,1158.299,386.2916,1160.3789,396.14,1160.2869" style="stroke:#181818;stroke-width:1;"/><text fill="#000000" font-family="sans-serif" font-size="13" lengthAdjust="spacing" textLength="147.4307" x="344.12" y="1107.9038">BudgetExhaustedError</text></g><!--link Running to Failed--><g class="link" data-entity-1="ent0003" data-entity-2="ent0013" data-link-type="dependency" data-source-line="53" id="lnk22"><path d="M493.92,1057.7769 C494.73,1067.7169 495.47,1077.5869 496.12,1087.3369 C497.49,1107.8769 496.464,1124.996 494.394,1143.036" fill="none" id="Running-to-Failed-1" style="stroke:#181818;stroke-width:1;"/><polygon fill="#181818" points="493.71,1148.9969,498.7099,1140.5115,494.28,1144.0295,490.762,1139.5996,493.71,1148.9969" style="stroke:#181818;stroke-width:1;"/><text fill="#000000" font-family="sans-serif" font-size="13" lengthAdjust="spacing" textLength="123.2017" x="497.61" y="1107.9038">LoopDetectedError</text></g><!--link Running to Failed--><g class="link" data-entity-1="ent0003" data-entity-2="ent0013" data-link-type="dependency" data-source-line="54" id="lnk23"><path d="M622.04,1057.7969 C624.63,1067.6769 627,1077.5269 629.12,1087.3369 C632.12,1101.2369 636.91,1107.4369 629.12,1119.3369 C617.86,1136.5269 606.0017,1146.3259 587.3917,1155.2359" fill="none" id="Running-to-Failed-2" style="stroke:#181818;stroke-width:1;"/><polygon fill="#181818" points="581.98,1157.8269,591.8249,1157.5482,586.4898,1155.6677,588.3703,1150.3326,581.98,1157.8269" style="stroke:#181818;stroke-width:1;"/><text fill="#000000" font-family="sans-serif" font-size="13" lengthAdjust="spacing" textLength="141.5527" x="634.35" y="1107.9038">Unbehandelter Fehler</text></g><!--link Completed to *end*--><g class="link" data-entity-1="ent0012" data-entity-2="ent0024" data-link-type="dependency" data-source-line="66" id="lnk25"><path d="M260.09,1213.9169 C283.43,1236.1869 308.5584,1260.1756 322.2084,1273.1956" fill="none" id="Completed-to-*end*" style="stroke:#181818;stroke-width:1;"/><polygon fill="#181818" points="326.55,1277.3369,322.7984,1268.2305,322.932,1273.8858,317.2767,1274.0194,326.55,1277.3369" style="stroke:#181818;stroke-width:1;"/></g><!--link Failed to *end*--><g class="link" data-entity-1="ent0013" data-entity-2="ent0024" data-link-type="dependency" data-source-line="67" id="lnk26"><path d="M441.35,1213.9169 C406.3,1237.0069 366.7004,1263.0959 348.0004,1275.4159" fill="none" id="Failed-to-*end*" style="stroke:#181818;stroke-width:1;"/><polygon fill="#181818" points="342.99,1278.7169,352.7062,1277.1057,347.1653,1275.9661,348.3049,1270.4252,342.99,1278.7169" style="stroke:#181818;stroke-width:1;"/></g><?plantuml-src VLHBRXD14DtFAKfPnKY6FG8antP4X1EiE0W9WgBsJCrCA-sUKNSF922s780pS8piV1DEGlLdFcsFs5ZMz7lrwjNFS2CGFZNQC9dfZBD2iTqEfl2nKlUvgBx1TIDXnNDC7rE1IVBvsHUOJj_06cN6PG4lUoGgRL08aoGKpI2S1Cm9CDtXVoGmu5uoIQ6rWG85or16Z_DA6dmmm2Ktd0ckEIgJ_4oI5cBpeFIaXwj6daw0DNc1giafLfj6WBWqMhXD8pnl3DP4q_d-gLGe7Sn-MpvWwd00dMc5cnhJUOdflNjmFwrRXLFx2hNQF-KXq14ZW6S5IdEewZvQsIXifSr8NFew6lX2VcMACme-X7TVFTuHXgavTvqy5RCres6BRZPSRqP8jbBdZ0lC8bQEfIXGfwLWXMs5vVRnNIs73eZhAv9JYtan0ezqtDFqd3HG1JDHD4k8BTlasa8UUJhYngPwtfYh0vsMlcPQEthtVYWxGhHpDc0SwDtAlxz-mzlPwYOPTjpDxtgssImNtUnwzIFK-UnYDK1vYpxOmFBXf5DArsZKuwqyPSRWhZRm2dRiOJ96z1RU8PVeM1mrx9-soZNrfzNgTikjRzKOlxv-3RVURaNfsohrMng0Vea3oIzd7yB-G_LSqj6uerDKdquE09MygwaoOEiezt_Iab3AAHy3S_BaW7xCfYw_5x2a_hLEMdpRyx0xLr5aEcrvuvfEdFRyMCQysjK2ZHzeGLVOeZLaZRBzjXUC2kujGS6t1guggkdtXjOwlPz4eRfPFMko0cbfIhei57cfLAN6aQkggXUadluVza5kiRGpAsmQxSQ5ddGEN5TwFxOlGtSND3IQpZWipgWQkaQUblQKnoZIfo8pqsXu3VFtb-lLycQvi5KBSZuffnNoiq9TgZwv7Ogi8HUnJWUAHFmwM8K-Zp33IJpI_m00?></g></svg>